<mxfile host="app.diagrams.net" agent="Mozilla/5.0 (Windows NT 10.0; Win64; x64) AppleWebKit/537.36 (KHTML, like Gecko) Chrome/140.0.0.0 Safari/537.36" version="28.2.1">
  <diagram id="gLIXAhVzJU1yQkhvu1KW" name="ページ1">
    <mxGraphModel dx="786" dy="451" grid="1" gridSize="10" guides="1" tooltips="1" connect="1" arrows="1" fold="1" page="1" pageScale="1" pageWidth="827" pageHeight="1169" math="0" shadow="0">
      <root>
        <mxCell id="0" />
        <mxCell id="1" parent="0" />
        <mxCell id="L1fdb548s0yakb4ZkGGb-2" value="RoboDog" style="text;html=1;align=center;verticalAlign=middle;resizable=0;points=[];autosize=1;strokeColor=none;fillColor=none;" vertex="1" parent="1">
          <mxGeometry x="130" y="30" width="70" height="30" as="geometry" />
        </mxCell>
        <mxCell id="L1fdb548s0yakb4ZkGGb-3" value="ユーザ" style="shape=umlActor;verticalLabelPosition=bottom;verticalAlign=top;html=1;outlineConnect=0;" vertex="1" parent="1">
          <mxGeometry x="130" y="110" width="30" height="60" as="geometry" />
        </mxCell>
        <mxCell id="L1fdb548s0yakb4ZkGGb-4" value="" style="rounded=0;whiteSpace=wrap;html=1;" vertex="1" parent="1">
          <mxGeometry x="240" y="30" width="180" height="220" as="geometry" />
        </mxCell>
        <mxCell id="L1fdb548s0yakb4ZkGGb-5" value="システム内部" style="text;html=1;align=center;verticalAlign=middle;resizable=0;points=[];autosize=1;strokeColor=none;fillColor=none;" vertex="1" parent="1">
          <mxGeometry x="280" y="30" width="100" height="30" as="geometry" />
        </mxCell>
        <mxCell id="L1fdb548s0yakb4ZkGGb-6" value="名前を変更する" style="ellipse;whiteSpace=wrap;html=1;" vertex="1" parent="1">
          <mxGeometry x="250" y="60" width="160" height="40" as="geometry" />
        </mxCell>
        <mxCell id="L1fdb548s0yakb4ZkGGb-7" value="足し算をする" style="ellipse;whiteSpace=wrap;html=1;" vertex="1" parent="1">
          <mxGeometry x="250" y="180" width="160" height="40" as="geometry" />
        </mxCell>
        <mxCell id="L1fdb548s0yakb4ZkGGb-8" value="時刻に応じた&lt;div&gt;挨拶をする&lt;/div&gt;" style="ellipse;whiteSpace=wrap;html=1;" vertex="1" parent="1">
          <mxGeometry x="250" y="120" width="160" height="40" as="geometry" />
        </mxCell>
        <mxCell id="L1fdb548s0yakb4ZkGGb-9" value="" style="endArrow=none;html=1;rounded=0;entryX=0;entryY=0.5;entryDx=0;entryDy=0;" edge="1" parent="1" source="L1fdb548s0yakb4ZkGGb-3" target="L1fdb548s0yakb4ZkGGb-6">
          <mxGeometry width="50" height="50" relative="1" as="geometry">
            <mxPoint x="110" y="170" as="sourcePoint" />
            <mxPoint x="320" y="150" as="targetPoint" />
          </mxGeometry>
        </mxCell>
        <mxCell id="L1fdb548s0yakb4ZkGGb-10" value="" style="endArrow=none;html=1;rounded=0;exitX=0;exitY=0.5;exitDx=0;exitDy=0;" edge="1" parent="1" source="L1fdb548s0yakb4ZkGGb-7" target="L1fdb548s0yakb4ZkGGb-3">
          <mxGeometry width="50" height="50" relative="1" as="geometry">
            <mxPoint x="110" y="310" as="sourcePoint" />
            <mxPoint x="195" y="260" as="targetPoint" />
          </mxGeometry>
        </mxCell>
        <mxCell id="L1fdb548s0yakb4ZkGGb-11" value="" style="endArrow=none;html=1;rounded=0;entryX=0;entryY=0.5;entryDx=0;entryDy=0;" edge="1" parent="1" source="L1fdb548s0yakb4ZkGGb-3" target="L1fdb548s0yakb4ZkGGb-8">
          <mxGeometry width="50" height="50" relative="1" as="geometry">
            <mxPoint x="200" y="360" as="sourcePoint" />
            <mxPoint x="285" y="310" as="targetPoint" />
          </mxGeometry>
        </mxCell>
      </root>
    </mxGraphModel>
  </diagram>
</mxfile>
